<?xml version="1.0" encoding="utf-8"?>
<!-- Generator: Adobe Illustrator 21.1.0, SVG Export Plug-In . SVG Version: 6.00 Build 0)  -->
<svg version="1.1" id="Layer_1" xmlns="http://www.w3.org/2000/svg" xmlns:xlink="http://www.w3.org/1999/xlink" x="0px" y="0px"
	 viewBox="0 0 60 60" style="enable-background:new 0 0 60 60;" xml:space="preserve">
<style type="text/css">
	.st0{fill:#4E4E4E;}
</style>
<g>
	<g>
		<path class="st0" d="M41.2,32.4c-0.3,0.7-1.7,1-2.4,1.1c-0.5,0.1-2.2,0.3-2.6-0.4c-0.1-0.2,0.1-0.9,0.3-1.1
			c0.3-0.3,1.1-0.7,1.5-0.8c0.7-0.4,2-0.4,2.7,0.1C41.2,31.4,41.3,32,41.2,32.4z"/>
		<path class="st0" d="M53,38.2l0-0.2v0c0-0.1,0-0.2,0-0.3c-0.4-3.1-1.1-7-4.1-9.1c-2.5-1.8-5.9-2.9-8.8-2.9c-1,0-1.9,0.1-2.8,0.4
			c-4.3,1.2-12.6,8-12.9,14.1c0.8,2.3,6,3.3,8.6,3.3c0.3,0,0.5,0,0.7,0c0.9-0.1,1.8-0.3,2.8-0.6c1.3-0.4,2.7-0.7,4-0.7
			c0.4,0,0.8,0,1.1,0.1c1.5,0.3,2.8,1.1,4.1,1.9c1.4,0.9,2.8,1.7,4.2,1.8l0.1,0c0.1,0,0.2,0,0.3,0c1.2,0,2.3-1,2.8-1.7
			C53.4,42.1,53.1,39.6,53,38.2z M35,34.7c-1.8-1.7,0-3.5,1.7-4.5c2-1.2,6.1-1.3,6.7,1.3C44.2,34.9,37,36.6,35,34.7z"/>
		<path class="st0" d="M54.9,36.7c-0.5-4.7-2.1-8.5-6.3-10.9c-3.9-2.2-9-2.4-13.1-0.8c-5.8,2.3-13.7,10.4-12.8,17.4
			c1.1,2.4,3.9,3.9,6.6,4c2.9,0.1,5.6-0.6,8.4-0.6c1.1-0.1,2.4-0.1,3.4,0c1,0.2,2,0.9,2.9,1.5c1.4,1,3.7,3,5.6,2.7
			c0.9-0.1,2.2-0.6,3.5-1.2c0.1-0.1,0.2-0.2,0.3-0.3C56.1,45.4,55.3,40.4,54.9,36.7z M53.8,44.6c-0.9,1.2-2.3,2.3-3.8,2
			c-3-0.2-5.4-3.1-8.4-3.7c-2.5-0.4-5.3,1-7.8,1.2c-2.3,0.2-9-0.7-9.9-3.8v0c0.2-6.3,8.6-13.4,13.3-14.8c3.9-1.1,8.9,0.3,12.1,2.6
			c3,2.1,4,6,4.4,9.5c0,0.1,0,0.3,0,0.5c0,0,0,0,0,0C53.8,39.7,54,42.2,53.8,44.6z"/>
		<path class="st0" d="M53,49.5c-0.1,0.1-0.2,0.2-0.3,0.3c-0.1,0.1-0.2,0.2-0.3,0.3c-0.1,0.1-0.2,0.2-0.3,0.3
			c-0.1,0.1-0.2,0.2-0.3,0.2c-0.2,0.2-0.4,0.3-0.7,0.5c-0.1,0.1-0.2,0.1-0.3,0.2c-0.1,0.1-0.2,0.1-0.3,0.2c0,0,0,0-0.1,0
			c-0.1,0.1-0.2,0.1-0.3,0.2c-0.1,0.1-0.2,0.1-0.3,0.2c-0.1,0-0.2,0.1-0.3,0.1c-0.1,0-0.2,0.1-0.4,0.1c-0.1,0-0.3,0.1-0.4,0.1
			c-1.2,0.2-2.4,0.1-3.7-0.6c-1.9-1.1-3.7-2.5-5.9-2.9c-0.3-0.1-0.6-0.1-1-0.1c-1.1,0-2.1,0.1-3.1,0.2c-0.1,0-0.3,0-0.4,0.1
			c-1.1,0.2-2.3,0.4-3.4,0.5c-1.3,0.2-2.6,0.1-3.9-0.3c-0.3-0.1-0.6-0.2-0.9-0.4c0,0,0,0,0,0c-0.3-0.1-0.6-0.3-0.9-0.5
			c-1-0.7-1.8-1.6-2.4-2.8c-0.1-0.1-0.1-0.3-0.2-0.4c-0.1-0.3-0.2-0.5-0.3-0.8c0-0.2-0.1-0.3-0.1-0.5c0,0,0-0.1,0-0.2
			c0-0.2-0.1-0.3-0.1-0.5c1.1,2.4,3.9,3.9,6.6,4c2.9,0.1,5.6-0.6,8.4-0.6c1.1-0.1,2.4-0.1,3.4,0c1,0.2,2,0.9,2.9,1.5
			c1.4,1,3.7,3,5.6,2.7C50.4,50.5,51.8,50.1,53,49.5z"/>
		<path class="st0" d="M41.2,32.4c-0.3,0.7-1.7,1-2.4,1.1c-0.5,0.1-2.2,0.3-2.6-0.4c-0.1-0.2,0.1-0.9,0.3-1.1
			c0.3-0.3,1.1-0.7,1.5-0.8c0.7-0.4,2-0.4,2.7,0.1C41.2,31.4,41.3,32,41.2,32.4z"/>
	</g>
	<g>
		<path class="st0" d="M46.6,9.3c0.2,0.4,0.2,0.9,0.2,1.3c0,0.1,0,0.1,0,0.2c0,0.4,0.2,1,0.6,1.3c0.3,0.3,0.6,0.6,0.8,1
			c0.6,1.3,0,2.8-1.4,3.4c-0.7,0.3-1.5,0.3-2.1-0.1c-0.1-0.1-0.2-0.1-0.3-0.2c-1.1-0.6-1.4-0.9-2.5-0.4L34.2,19L34,18.6
			c-0.1,0-0.2,0.1-0.2,0.1c0,0,0-0.1,0-0.2c0-0.2,0.1-0.4,0.3-0.5l0.8-0.8l-1.1-0.3c-0.4-0.1-0.9-0.2-1.3-0.3c0,0-0.1,0-0.1,0
			c0.2-0.3,0.4-0.6,0.5-1.2l0-0.1l7.3-3.1c1.1-0.5,1.1-1,1.4-2.2c0-0.1,0.1-0.2,0.1-0.3c0.2-0.7,0.7-1.3,1.4-1.6
			C44.5,7.4,46,8,46.6,9.3z"/>
		<path class="st0" d="M29.5,23c1.1-1.5,2.3-2.5,4.8-3.8c-1.2,0.7-1.6-0.9-0.8-1.8c-0.8-0.2-1.7-0.4-2.4-0.6
			c0.6-0.8,0.9-0.8,1.1-1.7c-6,2.3-12.2-0.6-18,0.7c-2.9,0.7-5.2,1.8-7.2,4c-1.5,1.5-2.8,5-2.2,7.4c0.9,3.3,1.7,5.4,4.5,7
			c3,1.7,6.2,1.1,9-0.1C24.2,31.7,26.4,27.6,29.5,23z"/>
	</g>
</g>
</svg>
